<svg width="120" height="120" viewBox="0 0 120 120" fill="none" xmlns="http://www.w3.org/2000/svg">
<g opacity="0.48">
<path opacity="0.48" fill-rule="evenodd" clip-rule="evenodd" d="M21.1902 86.0659L22.6459 87.5217L24.1062 86.0619L24.7302 86.6858L23.2696 88.1453L24.7262 89.601L24.1005 90.2266L22.6438 88.771L21.1845 90.2306L20.5605 89.6067L22.0201 88.1474L20.5645 86.6915L21.1902 86.0659Z" fill="#919EAB"/>
<path opacity="0.48" fill-rule="evenodd" clip-rule="evenodd" d="M87.2381 12.7675L88.6937 14.2233L90.1541 12.7635L90.7781 13.3873L89.3175 14.8469L90.7741 16.3025L90.1483 16.9281L88.6916 15.4725L87.2323 16.9321L86.6083 16.3083L88.0679 14.849L86.6124 13.393L87.2381 12.7675Z" fill="#919EAB"/>
<path opacity="0.72" d="M61.4784 104.835C61.7522 104.562 62.1233 104.409 62.5101 104.409C62.897 104.409 63.268 104.562 63.5419 104.835L64.5809 105.874C64.717 106.009 64.8258 106.171 64.8995 106.348C64.9734 106.526 65.0115 106.716 65.0115 106.909C65.0115 107.101 64.9734 107.291 64.8995 107.469C64.8258 107.646 64.7178 107.807 64.5817 107.942L63.5419 108.982C63.268 109.255 62.897 109.409 62.5101 109.409C62.1233 109.409 61.7522 109.255 61.4784 108.982L60.4393 107.943C60.3032 107.808 60.1945 107.646 60.1207 107.469C60.0468 107.291 60.0088 107.101 60.0088 106.909C60.0088 106.716 60.0468 106.526 60.1207 106.348C60.1944 106.171 60.3024 106.01 60.4385 105.875L61.4784 104.835Z" fill="#919EAB"/>
<path fill-rule="evenodd" clip-rule="evenodd" d="M96.6978 39.0406C96.6977 39.0406 96.6979 39.0405 96.6978 39.0406L95.6585 40.0796L95.2196 39.6406L95.6571 40.081C95.6368 40.1011 95.6207 40.1251 95.6097 40.1516C95.5987 40.178 95.593 40.2063 95.593 40.235C95.593 40.2636 95.5987 40.292 95.6097 40.3184C95.6207 40.3448 95.6368 40.3688 95.6571 40.389L95.6585 40.3904L96.6978 41.4294C96.6977 41.4293 96.6979 41.4295 96.6978 41.4294C96.739 41.4704 96.7948 41.4935 96.8529 41.4935C96.911 41.4935 96.9667 41.4705 97.0078 41.4296C97.0077 41.4297 97.0079 41.4296 97.0078 41.4296L98.0487 40.389C98.069 40.3688 98.0851 40.3448 98.0961 40.3184C98.1072 40.2919 98.1128 40.2635 98.1128 40.235C98.1128 40.2064 98.1072 40.1781 98.0961 40.1516C98.0851 40.1251 98.069 40.1011 98.0487 40.081L98.0473 40.0796L97.008 39.0406C97.008 39.0405 97.0081 39.0406 97.008 39.0406C96.9669 38.9997 96.911 38.9764 96.8529 38.9764C96.7948 38.9764 96.739 38.9996 96.6978 39.0406ZM94.7813 39.2011L95.8211 38.1616C96.095 37.8884 96.466 37.735 96.8529 37.735C97.2397 37.735 97.6108 37.8884 97.8847 38.1616L97.8852 38.1621L98.9237 39.2003C98.924 39.2005 98.9242 39.2008 98.9244 39.201C99.0606 39.3365 99.1686 39.4974 99.2423 39.6747C99.3162 39.8521 99.3543 40.0426 99.3543 40.235C99.3543 40.4274 99.3162 40.6178 99.2423 40.7953C99.1686 40.9725 99.0606 41.1335 98.9245 41.2689C98.9242 41.2692 98.924 41.2694 98.9237 41.2697L97.8847 42.3084C97.6108 42.5816 97.2397 42.735 96.8529 42.735C96.466 42.735 96.095 42.5816 95.8211 42.3084L94.7821 41.2697C94.7818 41.2694 94.7816 41.2691 94.7813 41.2689C94.6452 41.1334 94.5372 40.9725 94.4635 40.7953C94.3896 40.6177 94.3516 40.4273 94.3516 40.235C94.3516 40.0427 94.3896 39.8522 94.4635 39.6747C94.5372 39.4974 94.6452 39.3365 94.7813 39.2011Z" fill="#919EAB"/>
<path opacity="0.48" fill-rule="evenodd" clip-rule="evenodd" d="M104.552 66.3173C104.701 66.2788 104.858 66.2779 105.008 66.3152C105.173 66.356 105.322 66.4408 105.442 66.5601C105.561 66.6796 105.646 66.8294 105.687 66.9934C105.724 67.1436 105.723 67.3004 105.685 67.4496L105.109 70.541C105.062 70.7838 104.909 71.1333 104.522 71.2523C104.135 71.3713 103.812 71.1677 103.638 70.9932L101.009 68.3652C100.831 68.1887 100.628 67.865 100.748 67.4773C100.868 67.0898 101.219 66.9374 101.464 66.8921C101.465 66.8921 101.465 66.892 101.465 66.892L104.552 66.3173ZM104.448 67.5539L102.291 67.9553L104.046 69.7099L104.448 67.5539Z" fill="#919EAB"/>
<path opacity="0.8" fill-rule="evenodd" clip-rule="evenodd" d="M102.46 94.2659C102.609 94.2274 102.766 94.2265 102.916 94.2638C103.08 94.3046 103.23 94.3894 103.349 94.5087C103.469 94.6282 103.554 94.778 103.594 94.942C103.632 95.0922 103.631 95.249 103.592 95.3982L103.016 98.4896C102.97 98.7324 102.817 99.0819 102.43 99.2009C102.042 99.3199 101.72 99.1163 101.545 98.9418L98.9167 96.3138C98.7386 96.1373 98.5356 95.8136 98.6558 95.4259C98.776 95.0384 99.1263 94.886 99.3721 94.8407C99.3724 94.8407 99.3727 94.8406 99.373 94.8406L102.46 94.2659ZM102.356 95.5025L100.199 95.9039L101.954 97.6585L102.356 95.5025Z" fill="#637381"/>
<path opacity="0.8" fill-rule="evenodd" clip-rule="evenodd" d="M12.5004 72.4729C12.3186 72.4729 12.1408 72.5268 11.9896 72.6278C11.8383 72.7289 11.7205 72.8724 11.651 73.0402C11.5814 73.2081 11.5632 73.3929 11.5987 73.5711C11.6341 73.7494 11.7217 73.9131 11.8502 74.0416C11.9787 74.1701 12.1425 74.2576 12.321 74.2931C12.4996 74.3286 12.6845 74.3104 12.8523 74.2409C13.0203 74.1714 13.1639 74.0535 13.265 73.9023C13.366 73.7512 13.4199 73.5736 13.4199 73.3918C13.4199 73.1482 13.323 72.9144 13.1506 72.7421C12.9783 72.5697 12.7444 72.4729 12.5004 72.4729ZM11.1113 71.3132C11.5225 71.0385 12.0059 70.8918 12.5004 70.8918C13.1635 70.8918 13.7995 71.1551 14.2684 71.624C14.7374 72.0928 15.0009 72.7288 15.0009 73.3918C15.0009 73.8864 14.8542 74.3697 14.5794 74.7808C14.3047 75.1919 13.9142 75.5124 13.4572 75.7017C13.0002 75.8909 12.4975 75.9402 12.0127 75.8438C11.5278 75.7474 11.0822 75.5094 10.7324 75.1597C10.3827 74.8101 10.1446 74.3647 10.0481 73.8797C9.95156 73.3947 10.0011 72.8919 10.1904 72.435C10.3797 71.9781 10.7002 71.5878 11.1113 71.3132Z" fill="#637381"/>
<path opacity="0.8" fill-rule="evenodd" clip-rule="evenodd" d="M54.5424 18.4017C54.3606 18.4017 54.1828 18.4556 54.0316 18.5567C53.8803 18.6577 53.7625 18.8012 53.693 18.969C53.6234 19.1369 53.6052 19.3217 53.6407 19.5C53.6761 19.6782 53.7637 19.8419 53.8922 19.9705C54.0207 20.0989 54.1845 20.1865 54.363 20.222C54.5416 20.2575 54.7265 20.2393 54.8943 20.1698C55.0623 20.1002 55.2059 19.9824 55.307 19.8312C55.408 19.68 55.4619 19.5024 55.4619 19.3207C55.4619 19.077 55.365 18.8432 55.1926 18.6709C55.0203 18.4986 54.7864 18.4017 54.5424 18.4017ZM53.1533 17.242C53.5645 16.9674 54.0479 16.8207 54.5424 16.8207C55.2055 16.8207 55.8415 17.084 56.3104 17.5528C56.7794 18.0216 57.0429 18.6576 57.0429 19.3207C57.0429 19.8152 56.8962 20.2986 56.6214 20.7097C56.3467 21.1207 55.9562 21.4413 55.4992 21.6305C55.0422 21.8198 54.5395 21.869 54.0547 21.7726C53.5698 21.6762 53.1242 21.4383 52.7744 21.0886C52.4247 20.7389 52.1865 20.2935 52.09 19.8085C51.9936 19.3235 52.0431 18.8207 52.2324 18.3639C52.4217 17.9069 52.7422 17.5166 53.1533 17.242Z" fill="#637381"/>
</g>
<g opacity="0.48">
<g filter="url(#filter0_di_2770_120567)">
<path fill-rule="evenodd" clip-rule="evenodd" d="M85 49.1606L65.8824 30H42C38.134 30 35 33.0818 35 36.8833V82.1167C35 85.9182 38.134 89 42 89H78C81.866 89 85 85.9182 85 82.1167V49.1606ZM58.1163 56.7749H50.6744C49.6461 56.7749 48.814 55.9441 48.814 54.9175C48.814 53.8908 49.6461 53.0601 50.6744 53.0601H58.1163C59.1446 53.0601 59.9767 53.8908 59.9767 54.9175C59.9767 55.9441 59.1446 56.7749 58.1163 56.7749ZM50.6744 60.4897C49.6461 60.4897 48.814 61.3204 48.814 62.3471C48.814 63.3737 49.6461 64.2045 50.6744 64.2045H69.279C70.3074 64.2045 71.1395 63.3737 71.1395 62.3471C71.1395 61.3204 70.3074 60.4897 69.279 60.4897H50.6744ZM48.814 69.7767C48.814 68.75 49.6461 67.9193 50.6744 67.9193H69.279C70.3074 67.9193 71.1395 68.75 71.1395 69.7767C71.1395 70.8033 70.3074 71.6341 69.279 71.6341H50.6744C49.6461 71.6341 48.814 70.8033 48.814 69.7767ZM50.6744 75.3489C49.6461 75.3489 48.814 76.1796 48.814 77.2063C48.814 78.2329 49.6461 79.0637 50.6744 79.0637H69.279C70.3074 79.0637 71.1395 78.2329 71.1395 77.2063C71.1395 76.1796 70.3074 75.3489 69.279 75.3489H50.6744Z" fill="#DFE3E8"/>
</g>
<path opacity="0.8" fill-rule="evenodd" clip-rule="evenodd" d="M50.6744 56.7749H58.1163C59.1446 56.7749 59.9767 55.9441 59.9767 54.9175C59.9767 53.8908 59.1446 53.0601 58.1163 53.0601H50.6744C49.6461 53.0601 48.814 53.8908 48.814 54.9175C48.814 55.9441 49.6461 56.7749 50.6744 56.7749ZM48.814 62.3471C48.814 61.3204 49.6461 60.4897 50.6744 60.4897H69.279C70.3074 60.4897 71.1395 61.3204 71.1395 62.3471C71.1395 63.3737 70.3074 64.2045 69.279 64.2045H50.6744C49.6461 64.2045 48.814 63.3737 48.814 62.3471ZM50.6744 67.9193C49.6461 67.9193 48.814 68.75 48.814 69.7767C48.814 70.8033 49.6461 71.6341 50.6744 71.6341H69.279C70.3074 71.6341 71.1395 70.8033 71.1395 69.7767C71.1395 68.75 70.3074 67.9193 69.279 67.9193H50.6744ZM48.814 77.2063C48.814 76.1796 49.6461 75.3489 50.6744 75.3489H69.279C70.3074 75.3489 71.1395 76.1796 71.1395 77.2063C71.1395 78.2329 70.3074 79.0637 69.279 79.0637H50.6744C49.6461 79.0637 48.814 78.2329 48.814 77.2063Z" fill="#637381"/>
<g filter="url(#filter1_di_2770_120567)">
<path d="M84 49H73.4139C69.5162 49 66 45.5995 66 41.8301V31L84 49Z" fill="#919EAB"/>
</g>
</g>
<defs>
<filter id="filter0_di_2770_120567" x="27" y="22" width="82" height="91" filterUnits="userSpaceOnUse" color-interpolation-filters="sRGB">
<feFlood flood-opacity="0" result="BackgroundImageFix"/>
<feColorMatrix in="SourceAlpha" type="matrix" values="0 0 0 0 0 0 0 0 0 0 0 0 0 0 0 0 0 0 127 0" result="hardAlpha"/>
<feOffset dx="8" dy="8"/>
<feGaussianBlur stdDeviation="8"/>
<feColorMatrix type="matrix" values="0 0 0 0 0.270588 0 0 0 0 0.309804 0 0 0 0 0.356863 0 0 0 0.16 0"/>
<feBlend mode="normal" in2="BackgroundImageFix" result="effect1_dropShadow_2770_120567"/>
<feBlend mode="normal" in="SourceGraphic" in2="effect1_dropShadow_2770_120567" result="shape"/>
<feColorMatrix in="SourceAlpha" type="matrix" values="0 0 0 0 0 0 0 0 0 0 0 0 0 0 0 0 0 0 127 0" result="hardAlpha"/>
<feOffset dx="-1" dy="-1"/>
<feGaussianBlur stdDeviation="2.5"/>
<feComposite in2="hardAlpha" operator="arithmetic" k2="-1" k3="1"/>
<feColorMatrix type="matrix" values="0 0 0 0 0.270588 0 0 0 0 0.309804 0 0 0 0 0.356863 0 0 0 0.48 0"/>
<feBlend mode="normal" in2="shape" result="effect2_innerShadow_2770_120567"/>
</filter>
<filter id="filter1_di_2770_120567" x="58" y="23" width="50" height="50" filterUnits="userSpaceOnUse" color-interpolation-filters="sRGB">
<feFlood flood-opacity="0" result="BackgroundImageFix"/>
<feColorMatrix in="SourceAlpha" type="matrix" values="0 0 0 0 0 0 0 0 0 0 0 0 0 0 0 0 0 0 127 0" result="hardAlpha"/>
<feOffset dx="8" dy="8"/>
<feGaussianBlur stdDeviation="8"/>
<feColorMatrix type="matrix" values="0 0 0 0 0.270588 0 0 0 0 0.309804 0 0 0 0 0.356863 0 0 0 0.16 0"/>
<feBlend mode="normal" in2="BackgroundImageFix" result="effect1_dropShadow_2770_120567"/>
<feBlend mode="normal" in="SourceGraphic" in2="effect1_dropShadow_2770_120567" result="shape"/>
<feColorMatrix in="SourceAlpha" type="matrix" values="0 0 0 0 0 0 0 0 0 0 0 0 0 0 0 0 0 0 127 0" result="hardAlpha"/>
<feOffset dx="-2"/>
<feGaussianBlur stdDeviation="2"/>
<feComposite in2="hardAlpha" operator="arithmetic" k2="-1" k3="1"/>
<feColorMatrix type="matrix" values="0 0 0 0 0.270588 0 0 0 0 0.309804 0 0 0 0 0.356863 0 0 0 0.48 0"/>
<feBlend mode="normal" in2="shape" result="effect2_innerShadow_2770_120567"/>
</filter>
</defs>
</svg>
