<svg width="24" height="24" viewBox="0 0 24 24" fill="none" xmlns="http://www.w3.org/2000/svg">
<path fill-rule="evenodd" clip-rule="evenodd" d="M13.2321 1.35982C13.8641 0.601815 15.0951 1.11982 14.9951 2.10182L14.2891 8.99982H20.0001C20.1901 8.99989 20.3762 9.05409 20.5365 9.15609C20.6968 9.25808 20.8248 9.40364 20.9054 9.57572C20.9859 9.7478 21.0158 9.93928 20.9915 10.1277C20.9672 10.3162 20.8897 10.4938 20.7681 10.6398L10.7681 22.6398C10.1361 23.3978 8.90511 22.8798 9.00511 21.8978L9.71111 14.9998H4.00011C3.8101 14.9997 3.62404 14.9455 3.46372 14.8435C3.3034 14.7416 3.17545 14.596 3.09487 14.4239C3.01429 14.2518 2.9844 14.0604 3.0087 13.8719C3.03301 13.6834 3.11051 13.5058 3.23211 13.3598L13.2321 1.35982Z" fill="#212B36"/>
</svg>
