<svg width="24" height="24" viewBox="0 0 24 24" fill="none" xmlns="http://www.w3.org/2000/svg">
<g id="_icon">
<path id="primary-shape" d="M17.8303 7.62126L17.2003 6.22126L15.8003 5.59126C15.4103 5.41126 15.4103 4.86126 15.8003 4.68126L17.2003 4.05126L17.8303 2.65126C18.0103 2.26126 18.5603 2.26126 18.7403 2.65126L19.3703 4.05126L20.7703 4.68126C21.1603 4.86126 21.1603 5.41126 20.7703 5.59126L19.3703 6.22126L18.7403 7.62126C18.5703 8.01126 18.0103 8.01126 17.8303 7.62126ZM21.0703 12.3513L20.7503 11.6313C20.5703 11.2413 20.0203 11.2413 19.8403 11.6313L19.5203 12.3513L18.7903 12.6713C18.4003 12.8513 18.4003 13.4013 18.7903 13.5813L19.5103 13.9013L19.8303 14.6313C20.0103 15.0213 20.5603 15.0213 20.7403 14.6313L21.0603 13.9113L21.7903 13.5913C22.1803 13.4113 22.1803 12.8613 21.7903 12.6813L21.0703 12.3513ZM16.0303 14.0013L17.2603 14.9313C17.6603 15.2313 17.7703 15.7913 17.5203 16.2313L15.9003 19.0313C15.6503 19.4713 15.1103 19.6513 14.6503 19.4513L13.2203 18.8513C13.0203 18.9813 12.8003 19.1113 12.5803 19.2213L12.3903 20.7613C12.3303 21.2613 11.9003 21.6413 11.4003 21.6413H8.17029C7.67029 21.6413 7.24029 21.2613 7.18029 20.7613L6.99029 19.2213C6.77029 19.1113 6.56029 18.9913 6.35029 18.8513L4.92029 19.4513C4.46029 19.6513 3.92029 19.4713 3.67029 19.0313L2.05029 16.2313C1.80029 15.7913 1.91029 15.2413 2.31029 14.9313L3.54029 14.0013C3.54029 13.8813 3.54029 13.7513 3.54029 13.6313C3.54029 13.5113 3.54029 13.3813 3.55029 13.2613L2.32029 12.3313C1.92029 12.0313 1.81029 11.4713 2.06029 11.0313L3.68029 8.23127C3.93029 7.79127 4.47029 7.61127 4.93029 7.81126L6.36029 8.41126C6.56029 8.28126 6.78029 8.15126 7.00029 8.04126L7.19029 6.50126C7.24029 6.01126 7.67029 5.63126 8.17029 5.63126H11.4003C11.9003 5.63126 12.3303 6.01126 12.3903 6.51126L12.5803 8.05126C12.8003 8.16126 13.0103 8.28126 13.2203 8.42126L14.6503 7.82126C15.1103 7.62126 15.6503 7.80126 15.9003 8.24126L17.5203 11.0413C17.7703 11.4813 17.6603 12.0313 17.2603 12.3413L16.0303 13.2713C16.0403 13.3913 16.0403 13.5113 16.0403 13.6413C16.0403 13.7713 16.0403 13.8813 16.0303 14.0013ZM12.7903 13.6313C12.7903 11.9713 11.4503 10.6313 9.79029 10.6313C8.13029 10.6313 6.79029 11.9713 6.79029 13.6313C6.79029 15.2913 8.13029 16.6313 9.79029 16.6313C11.4503 16.6313 12.7903 15.2913 12.7903 13.6313Z" fill="#637381"/>
</g>
</svg>
