<svg width="24" height="25" viewBox="0 0 24 25" fill="none" xmlns="http://www.w3.org/2000/svg">
<g id="Draft Toolbar Icons">
<path id="Vector" d="M15.3013 11.3909C16.1905 10.7767 16.8138 9.76841 16.8138 8.83341C16.8138 6.76175 15.2096 5.16675 13.1471 5.16675H7.41797V18.0001H13.8713C15.7871 18.0001 17.2721 16.4417 17.2721 14.5259C17.2721 13.1326 16.4838 11.9409 15.3013 11.3909ZM10.168 7.45841H12.918C13.6788 7.45841 14.293 8.07258 14.293 8.83341C14.293 9.59425 13.6788 10.2084 12.918 10.2084H10.168V7.45841ZM13.3763 15.7084H10.168V12.9584H13.3763C14.1371 12.9584 14.7513 13.5726 14.7513 14.3334C14.7513 15.0942 14.1371 15.7084 13.3763 15.7084Z" fill="black" fill-opacity="0.54"/>
</g>
</svg>
