<svg width="32" height="32" viewBox="0 0 32 32" fill="none" xmlns="http://www.w3.org/2000/svg">
<path d="M13.5035 31.8322L25.8465 10.5795C26.1259 10.0983 25.7296 9.50617 25.1782 9.58117L16.968 10.6971L18.9297 0.398233C18.9958 0.0510459 18.5482 -0.147892 18.3348 0.133796L6.19892 16.1532C5.84542 16.6197 6.21974 17.2832 6.80186 17.2219L15.8536 16.2691L12.8862 31.6009C12.8146 31.9707 13.3143 32.158 13.5035 31.8322Z" fill="#FFDC64"/>
<path d="M9.99405 15.0178C9.76736 15.036 9.6168 14.7882 9.7373 14.5953L18.811 0.0774715C18.676 -0.029341 18.4635 -0.036216 18.3348 0.133659L6.19892 16.153C5.84542 16.6197 6.21974 17.283 6.80186 17.2218L15.8536 16.269L12.8862 31.6007C12.8462 31.8075 12.9857 31.953 13.1487 31.9879L18.2337 15.8974C18.4721 15.1432 17.8707 14.3877 17.0822 14.4508L9.99405 15.0178Z" fill="#FFC850"/>
</svg>
