<svg width="32" height="32" viewBox="0 0 32 32" fill="none" xmlns="http://www.w3.org/2000/svg">
<path d="M6.45361 8.15318L6.45472 8.07484C6.55804 3.57909 10.7118 -0.121535 15.4133 0.00922144C15.3461 2.0243 15.2633 4.15585 15.4133 6.17092C15.8088 6.16272 16.2232 6.1291 16.6162 6.17092C16.2109 6.1966 15.8185 6.18786 15.4133 6.17092C14.5968 6.28898 14.121 8.41813 13.8227 9.10447H6.45361V8.15318Z" fill="#4F518C"/>
<path d="M15.4128 0.00975079C20.993 -0.234822 24.3506 4.1577 24.5741 9.105C22.3767 9.10738 20.1757 9.13491 17.9785 9.105C17.7269 8.58145 16.9193 6.41788 16.6157 6.17145C16.2227 6.12963 15.8083 6.16325 15.4128 6.17145C15.2629 4.15637 15.3456 2.02483 15.4128 0.00975079Z" fill="#2C2A4A"/>
<path d="M13.8219 9.10547C14.1202 8.41913 14.5959 6.28997 15.4125 6.17192C15.6219 7.09834 15.408 9.65126 15.4086 10.7733L15.4144 17.7103C15.4166 18.8394 15.5066 20.0056 15.4125 21.129C15.811 21.1218 16.2182 21.0964 16.6153 21.129C16.2109 21.1769 15.8177 21.1512 15.4125 21.129C12.2732 21.2949 9.15207 19.8108 7.52483 17.2055C6.62886 15.7711 6.00035 9.86751 6.45278 8.15418V9.10547H13.8219Z" fill="white"/>
<path d="M15.4131 6.17192C15.8183 6.18886 16.2107 6.1976 16.6159 6.17192C16.9195 6.41835 17.7271 8.58192 17.9788 9.10547C20.1759 9.13538 22.377 9.10785 24.5744 9.10547C24.5866 13.876 25.0474 17.6142 20.1534 20.2126C18.9858 20.7211 17.9135 21.1062 16.6159 21.129C16.2188 21.0964 15.8116 21.1218 15.4131 21.129C15.5072 20.0056 15.4172 18.8394 15.415 17.7103L15.4092 10.7733C15.4086 9.65126 15.6225 7.09834 15.4131 6.17192Z" fill="#9D58FC"/>
<path d="M16.6159 21.1302C17.9135 21.1075 18.9858 20.7223 20.1534 20.2139C20.3853 20.5744 20.4876 21.0691 20.7311 21.3846C20.212 23.6112 17.5683 24.6561 15.4131 24.7017V21.1302C15.8183 21.1524 16.2116 21.1781 16.6159 21.1302Z" fill="#A7B4DF"/>
<path d="M20.7307 21.3826C23.0653 21.4004 26.7223 22.5171 28.3123 24.0473C30.9035 26.5404 30.7738 28.7164 30.7597 31.9631C30.16 31.9157 29.5354 31.957 28.9333 31.9586L14.1929 31.9631C14.5948 31.8932 15.0075 31.9384 15.4127 31.9631C15.2402 30.2669 15.2894 26.5065 15.4127 24.6997C17.5679 24.6542 20.2116 23.6092 20.7307 21.3826Z" fill="#9D58FC"/>
<path d="M9.64666 21.3826C11.0225 23.5753 12.6079 24.61 15.413 24.6997C15.2896 26.5065 15.2405 30.2669 15.413 31.9631C15.0077 31.9384 14.595 31.8932 14.1931 31.9631C9.70637 32.0451 5.20264 31.9652 0.714195 31.9631C0.662815 26.264 3.03021 21.4634 9.64666 21.3826Z" fill="#9D58FC"/>
</svg>
