<svg width="32" height="32" viewBox="0 0 32 32" fill="none" xmlns="http://www.w3.org/2000/svg">
<g clip-path="url(#clip0_2760_52894)">
<path d="M28.9765 3.02339C24.9641 -1.0078 18.4202 -1.0078 14.4078 3.02339C11.6515 5.76095 10.6953 9.81102 11.8953 13.486C7.65781 17.7047 4.50006 20.8625 0.281312 25.1C0.09375 25.2687 0 25.5125 0 25.7562V31.0625C0 31.325 0.09375 31.5499 0.281312 31.7187C0.45 31.9062 0.675 32 0.9375 32H6.24381C6.48756 32 6.73131 31.9062 6.9 31.7187C7.3875 31.25 7.74375 30.875 8.23131 30.4062C8.43756 30.2 8.53125 29.9187 8.49381 29.6375C8.4375 29.1125 8.38131 28.7188 8.325 28.2125C9.0375 28.1376 9.58119 28.0813 10.3125 28.0251C10.7625 27.9688 11.0999 27.6313 11.1562 27.1813C11.2124 26.4688 11.2687 25.9063 11.3437 25.1938C11.85 25.2688 12.2437 25.3063 12.7687 25.3625C13.2937 25.4376 13.7999 25.0063 13.7999 24.4438V22.6875H15.525C15.7687 22.6875 16.0124 22.625 16.1812 22.4375C17.0437 21.575 17.6515 20.986 18.5141 20.1048C22.189 21.3047 26.2391 20.3485 28.9765 17.5922C33.0078 13.5796 33.0078 7.03595 28.9765 3.02339ZM26.3328 9.6422C25.2453 10.7485 23.4452 10.7485 22.3578 9.6422C21.2515 8.55464 21.2515 6.75477 22.3578 5.6672C23.4452 4.56089 25.2453 4.56089 26.3328 5.6672C27.439 6.75477 27.439 8.5547 26.3328 9.6422Z" fill="#FCBF29"/>
<path d="M28.9764 17.5923C26.239 20.3486 22.1889 21.3047 18.514 20.1049C17.6514 20.9861 17.0437 21.5752 16.1811 22.4376C16.0124 22.6251 15.7687 22.6876 15.525 22.6876H13.7999V24.4438C13.7999 25.0063 13.2937 25.4376 12.7687 25.3626C12.2437 25.3064 11.8499 25.2688 11.3437 25.1939C11.2687 25.9064 11.2124 26.4689 11.1562 27.1814C11.0999 27.6314 10.7624 27.9688 10.3125 28.0251C9.58125 28.0813 9.0375 28.1376 8.325 28.2126C8.38131 28.7189 8.4375 29.1125 8.49381 29.6376C8.53125 29.9187 8.4375 30.2001 8.23131 30.4062C7.74381 30.875 7.38756 31.25 6.9 31.7188C6.73131 31.9062 6.48756 32.0001 6.24381 32.0001H0.937438C0.674938 32.0001 0.449937 31.9062 0.28125 31.7188L22.3578 9.64225C23.4452 10.7486 25.2452 10.7486 26.3328 9.64225C27.439 8.55469 27.439 6.75481 26.3328 5.66725L28.9765 3.02344C33.0078 7.03606 33.0077 13.5798 28.9764 17.5923Z" fill="#FE9923"/>
</g>
<defs>
<clipPath id="clip0_2760_52894">
<rect width="32" height="32" fill="white"/>
</clipPath>
</defs>
</svg>
